# xmcd CD database file
# Copyright (C) 1993-1998 Ti Kan
#
# Track frame offsets:
#	183
#	13298
#	27018
#	39568
#	51698
#	63508
#	79910
#	98175
#	110263
#	125205
#	137658
#	147488
#	167993
#	184820
#
# Disc length: 2708 seconds
#
# Revision: 1
# Processed by: cddbd v1.4b41PL1 Copyright (c) Steve Scherf et al.
# Submitted via: CDValet v3.31 - Copyright (c) 1997 Greg Leichner
#
DISCID=d30a920e
DTITLE=Dionne Warwick - Only love can break a heart
DYEAR=1900
DGENRE=
TTITLE0=only Love Can Break A Heart
TTITLE1=I'm Your Puppet
TTITLE2=Let It Be Me
TTITLE3=Didn't We
TTITLE4=Steal Away
TTITLE5=I Think I Need Love
TTITLE6=Don't Let The Teardrops Bother You
TTITLE7=Everyday People
TTITLE8=Who Gets The Guy
TTITLE9=If I Rulled The World
TTITLE10=This Little Lights
TTITLE11=Come Back
TTITLE12=I Always get Cought In The Rain
TTITLE13=You Are The Heart Of Me
EXTD=Love songs.
EXTT0=
EXTT1=
EXTT2=
EXTT3=
EXTT4=
EXTT5=
EXTT6=
EXTT7=
EXTT8=
EXTT9=
EXTT10=
EXTT11=
EXTT12=
EXTT13=
PLAYORDER=
